<svg width="45" height="45" viewBox="0 0 45 45" fill="none" xmlns="http://www.w3.org/2000/svg">
<path d="M26.25 17.4375V22.875H31.125C31.5 22.875 31.6875 23.25 31.6875 23.625L30.9375 27.1875C30.9375 27.375 30.5625 27.5625 30.375 27.5625H26.25V41.25H20.625V27.75H17.4375C17.0625 27.75 16.875 27.5625 16.875 27.1875V23.625C16.875 23.25 17.0625 23.0625 17.4375 23.0625H20.625V16.875C20.625 13.6875 23.0625 11.25 26.25 11.25H31.3125C31.6875 11.25 31.875 11.4375 31.875 11.8125V16.3125C31.875 16.6875 31.6875 16.875 31.3125 16.875H26.8125C26.4375 16.875 26.25 17.0625 26.25 17.4375Z" stroke="white" stroke-width="1.5" stroke-miterlimit="10" stroke-linecap="round"/>
<path d="M28.125 41.25H16.875C7.5 41.25 3.75 37.5 3.75 28.125V16.875C3.75 7.5 7.5 3.75 16.875 3.75H28.125C37.5 3.75 41.25 7.5 41.25 16.875V28.125C41.25 37.5 37.5 41.25 28.125 41.25Z" stroke="white" stroke-width="1.5" stroke-linecap="round" stroke-linejoin="round"/>
</svg>
