<svg width="45" height="45" viewBox="0 0 45 45" fill="none" xmlns="http://www.w3.org/2000/svg">
<path d="M16.875 41.25H28.125C37.5 41.25 41.25 37.5 41.25 28.125V16.875C41.25 7.5 37.5 3.75 28.125 3.75H16.875C7.5 3.75 3.75 7.5 3.75 16.875V28.125C3.75 37.5 7.5 41.25 16.875 41.25Z" stroke="white" stroke-width="1.5" stroke-linecap="round" stroke-linejoin="round"/>
<path d="M22.5 29.0625C26.1244 29.0625 29.0625 26.1244 29.0625 22.5C29.0625 18.8756 26.1244 15.9375 22.5 15.9375C18.8756 15.9375 15.9375 18.8756 15.9375 22.5C15.9375 26.1244 18.8756 29.0625 22.5 29.0625Z" stroke="white" stroke-width="1.5" stroke-linecap="round" stroke-linejoin="round"/>
<path d="M33.0677 13.125H33.0894" stroke="white" stroke-width="2" stroke-linecap="round" stroke-linejoin="round"/>
</svg>
