<svg width="45" height="45" viewBox="0 0 45 45" fill="none" xmlns="http://www.w3.org/2000/svg">
<path d="M41.2499 6.50711V38.4924C41.2499 39.2237 40.9594 39.925 40.4423 40.4421C39.9252 40.9593 39.2239 41.2498 38.4926 41.2498H6.5073C5.776 41.2498 5.07466 40.9593 4.55756 40.4421C4.04045 39.925 3.74995 39.2237 3.74995 38.4924V6.50711C3.74995 5.77581 4.04045 5.07447 4.55756 4.55737C5.07466 4.04026 5.776 3.74976 6.5073 3.74976L38.4926 3.74976C39.2239 3.74976 39.9252 4.04026 40.4423 4.55737C40.9594 5.07447 41.2499 5.77581 41.2499 6.50711V6.50711ZM14.7794 18.088H9.26465V35.735H14.7794V18.088ZM15.2757 12.0218C15.2786 11.6047 15.1993 11.191 15.0423 10.8045C14.8854 10.418 14.6539 10.0662 14.3609 9.76923C14.068 9.47221 13.7195 9.23581 13.3352 9.0735C12.9509 8.9112 12.5384 8.82617 12.1213 8.82329H12.022C11.1737 8.82329 10.3601 9.16027 9.7603 9.76011C9.16046 10.36 8.82348 11.1735 8.82348 12.0218C8.82348 12.8701 9.16046 13.6837 9.7603 14.2835C10.3601 14.8834 11.1737 15.2203 12.022 15.2203V15.2203C12.4392 15.2306 12.8543 15.1586 13.2436 15.0083C13.6329 14.8581 13.9888 14.6327 14.291 14.3449C14.5931 14.057 14.8356 13.7125 15.0046 13.3309C15.1735 12.9494 15.2657 12.5383 15.2757 12.1211V12.0218ZM35.7352 25.0145C35.7352 19.7093 32.3602 17.6468 29.0073 17.6468C27.9095 17.5918 26.8164 17.8257 25.8372 18.325C24.8579 18.8243 24.0267 19.5716 23.4264 20.4924H23.272V18.088H18.0882V35.735H23.6029V26.349C23.5232 25.3877 23.826 24.4338 24.4455 23.6945C25.0651 22.9552 25.9513 22.4902 26.9117 22.4005H27.1213C28.8749 22.4005 30.1764 23.5034 30.1764 26.2828V35.735H35.6911L35.7352 25.0145Z" stroke="white" stroke-width="1.5" stroke-linejoin="round"/>
</svg>
