<svg width="45" height="45" viewBox="0 0 45 45" fill="none" xmlns="http://www.w3.org/2000/svg">
<path d="M41.2499 11.1089C39.8708 11.7199 38.3894 12.1328 36.832 12.3195C38.4208 11.3682 39.6396 9.85865 40.2144 8.06177C38.728 8.9437 37.0814 9.5845 35.3291 9.92802C33.9253 8.43502 31.9269 7.50024 29.7138 7.50024C25.4661 7.50024 22.0209 10.9454 22.0209 15.1964C22.0209 15.7976 22.0903 16.3823 22.2191 16.9471C15.8227 16.625 10.1562 13.5614 6.36098 8.90736C5.70036 10.0469 5.32051 11.3682 5.32051 12.7753C5.32051 15.4442 6.67973 17.8009 8.74251 19.18C7.48073 19.1387 6.29492 18.7935 5.25775 18.2171V18.3162C5.25775 22.0438 7.90848 25.1536 11.4296 25.8605C10.7822 26.0355 10.1034 26.128 9.40313 26.128C8.90766 26.128 8.42376 26.0818 7.95472 25.9926C8.93409 29.048 11.7747 31.2742 15.1422 31.3337C12.508 33.3981 9.19008 34.6285 5.5864 34.6285C4.96542 34.6285 4.3527 34.5922 3.74989 34.5212C7.15537 36.7062 11.1984 37.9779 15.5419 37.9779C29.6957 37.9779 37.4332 26.2552 37.4332 16.0883C37.4332 15.758 37.4249 15.4244 37.41 15.0941C38.9129 14.0073 40.2177 12.6547 41.2466 11.1138L41.2499 11.1089Z" stroke="white" stroke-width="1.5" stroke-linejoin="round"/>
</svg>
